<svg t="1597735896926" class="icon" viewBox="0 0 1024 1024" version="1.1" xmlns="http://www.w3.org/2000/svg" p-id="16692" width="16" height="16"><path d="M867 815.3L732.6 680.9c45-56.3 72-127.7 72-205.4 0-181.8-147.4-329.1-329.1-329.1s-329.2 147.2-329.2 329 147.4 329.1 329.1 329.1c77.7 0 149.1-27 205.4-72L815.3 867l51.7-51.7z m-391.6-83.9c-141.2 0-256-114.8-256-256s114.8-256 256-256 256 114.8 256 256-114.8 256-256 256z" fill="#5A6677" p-id="16693"></path><path d="M328.9 438.3h292.6v73.1H328.9z" fill="#5A6677" p-id="16694"></path></svg>